<svg xmlns="http://www.w3.org/2000/svg" xmlns:xlink="http://www.w3.org/1999/xlink" viewBox="0 0 405.78 102.2"><defs><style>.cls-1{fill:url(#linear-gradient);}.cls-2{fill:url(#linear-gradient-2);}.cls-3{fill:url(#linear-gradient-3);}.cls-4{fill:url(#linear-gradient-4);}.cls-5{fill:url(#linear-gradient-5);}.cls-6{fill:url(#linear-gradient-6);}.cls-7{fill:#999;}</style><linearGradient id="linear-gradient" x1="29.46" y1="51.62" x2="29.46" y2="81.48" gradientUnits="userSpaceOnUse"><stop offset="0" stop-color="#24cd98"/><stop offset="0.42" stop-color="#20b586"/><stop offset="0.98" stop-color="#1e966e"/></linearGradient><linearGradient id="linear-gradient-2" x1="35" y1="66.34" x2="54.76" y2="66.34" xlink:href="#linear-gradient"/><linearGradient id="linear-gradient-3" x1="71.58" y1="66.99" x2="71.58" y2="125.42" xlink:href="#linear-gradient"/><linearGradient id="linear-gradient-4" x1="-1002.86" y1="-2503" x2="-1002.86" y2="-2473.14" gradientTransform="translate(-943.93 -2452.41) rotate(180)" xlink:href="#linear-gradient"/><linearGradient id="linear-gradient-5" x1="-997.32" y1="-2488.28" x2="-977.56" y2="-2488.28" gradientTransform="translate(-943.93 -2452.41) rotate(180)" xlink:href="#linear-gradient"/><linearGradient id="linear-gradient-6" x1="-960.74" y1="-2487.63" x2="-960.74" y2="-2429.2" gradientTransform="translate(-943.93 -2452.41) rotate(180)" xlink:href="#linear-gradient"/></defs><title>Asset 8</title><g id="Layer_2" data-name="Layer 2"><g id="Layer_1-2" data-name="Layer 1"><path class="cls-1" d="M46.44,76.26H25.3A12.8,12.8,0,0,1,12.49,63.45V51.1H33.63V63.45A12.68,12.68,0,0,0,35,69.22a11.28,11.28,0,0,0,.82,1.39l.27.4a13.09,13.09,0,0,0,1.29,1.5l.44.42.47.41c.14.12.29.23.44.34a5.3,5.3,0,0,0,.54.39c.17.12.35.23.53.34s.64.37,1,.54.81.37,1.22.52l.32.11.35.12.47.13c.25.07.51.13.77.18a3.07,3.07,0,0,0,.42.07l.27,0,.46.06.26,0,.47,0Z"/><path class="cls-2" d="M54.76,56.41V76.26h-9l-.47,0-.26,0-.46-.06-.27,0A3.07,3.07,0,0,1,43.9,76c-.26-.05-.52-.11-.77-.18l-.47-.13-.35-.12L42,75.47c-.41-.15-.82-.33-1.22-.52s-.66-.34-1-.54-.36-.22-.53-.34a5.3,5.3,0,0,1-.54-.39c-.15-.11-.3-.22-.44-.34l-.47-.41-.44-.42A13.09,13.09,0,0,1,36.09,71l-.27-.4A11.28,11.28,0,0,1,35,69.22h7A12.8,12.8,0,0,0,54.76,56.41Z"/><path class="cls-3" d="M88.39,102.2H67.57A12.81,12.81,0,0,1,54.76,89.39V51.1H75.9V89.18C75.9,98,77.82,100.92,88.39,102.2Z"/><path class="cls-4" d="M42,25.94H63.09A12.8,12.8,0,0,1,75.9,38.75V51.1H54.76V38.75A12.67,12.67,0,0,0,53.39,33a12.2,12.2,0,0,0-.82-1.4l-.27-.4A13.09,13.09,0,0,0,51,29.69l-.44-.41-.47-.41-.43-.35c-.18-.13-.36-.27-.55-.39s-.34-.23-.52-.33-.65-.38-1-.55-.8-.36-1.22-.52l-.32-.1-.35-.13c-.15,0-.3-.09-.47-.12a6.63,6.63,0,0,0-.77-.18,2.84,2.84,0,0,0-.42-.08l-.27,0a3.62,3.62,0,0,0-.46-.06l-.26,0-.47,0Z"/><path class="cls-5" d="M33.63,45.8V25.94H42l.66,0,.47,0,.26,0a3.62,3.62,0,0,1,.46.06l.27,0a2.84,2.84,0,0,1,.42.08,6.63,6.63,0,0,1,.77.18c.17,0,.32.08.47.12l.35.13.32.1c.42.16.82.33,1.22.52s.66.35,1,.55.35.22.52.33.37.26.55.39l.43.35.47.41.44.41a13.09,13.09,0,0,1,1.29,1.5l.27.4a12.2,12.2,0,0,1,.82,1.4h-7A12.8,12.8,0,0,0,33.63,45.8Z"/><path class="cls-6" d="M0,0H20.82A12.81,12.81,0,0,1,33.63,12.81V51.1H12.49V13C12.49,4.16,10.57,1.28,0,0Z"/><path d="M104.53,30.25h3.64v4.36h-3.64Zm.1,10.27h3.49V66.34h-3.49Z"/><path d="M116.54,40.52H120v3.85a19.28,19.28,0,0,1-.11,2.05H120a11,11,0,0,1,10.31-6.52c6.37,0,8.63,3.64,8.63,10V66.34h-3.49V50.83c0-4-.62-7.64-5.6-7.64a9.8,9.8,0,0,0-9.39,7.28A12.7,12.7,0,0,0,120,54V66.34h-3.49Z"/><path d="M146.77,60.69a11.1,11.1,0,0,0,7.7,3.13c2.77,0,5.18-1.39,5.18-4.11,0-5.64-13.91-4.26-13.91-12.67,0-4.62,4.16-7.14,8.83-7.14,5.44,0,8,2.82,8,2.82l-1.59,2.67A9.17,9.17,0,0,0,154.47,43c-2.62,0-5.13,1.13-5.13,4,0,5.69,13.91,4.15,13.91,12.67,0,4.21-3.65,7.24-8.83,7.24a13.18,13.18,0,0,1-9.55-3.74Z"/><path d="M170.69,43.75H167.3V40.82h3.44V33.38h3.44v7.44h6.47v2.93h-6.47V56.58c0,6.06,3.85,6.83,5.8,6.83a6.12,6.12,0,0,0,1.18-.1v3.13a9.36,9.36,0,0,1-1.49.1c-3,0-9-1-9-9.6Z"/><path d="M186.91,40.52h3.44v4.57c0,1.12-.1,2-.1,2h.1c1.23-3.9,4.11-6.88,8.16-6.88a7.21,7.21,0,0,1,1.39.15v3.44a9.17,9.17,0,0,0-1.29-.1c-3.64,0-6.36,2.88-7.49,6.67a17.19,17.19,0,0,0-.72,5V66.34h-3.49Z"/><path d="M204.82,40.52h3.49V56c0,4,.62,7.65,5.6,7.65,5.9,0,9.55-5.19,9.55-10.78V40.52H227V66.34h-3.39V62.49c0-1.13.1-2.06.1-2.06h-.1A11,11,0,0,1,213.45,67c-6.06,0-8.63-3.28-8.63-10Z"/><path d="M247.12,39.9a12.7,12.7,0,0,1,9.44,3.7l-1.79,2.61a11,11,0,0,0-7.55-3.13c-5.64,0-10.06,4.21-10.06,10.37a10,10,0,0,0,10.16,10.37,11.39,11.39,0,0,0,8.27-3.64l1.59,2.72A13.79,13.79,0,0,1,247.12,67c-7.65,0-13.55-5.49-13.55-13.5A13.19,13.19,0,0,1,247.12,39.9Z"/><path d="M264.52,43.75h-3.39V40.82h3.44V33.38H268v7.44h6.47v2.93H268V56.58c0,6.06,3.85,6.83,5.8,6.83a6.12,6.12,0,0,0,1.18-.1v3.13a9.36,9.36,0,0,1-1.49.1c-3,0-9-1-9-9.6Z"/><path d="M292.5,39.9a13.53,13.53,0,1,1-13.66,13.4A13.37,13.37,0,0,1,292.5,39.9Zm0,23.92A10.19,10.19,0,0,0,302.56,53.3a10.07,10.07,0,1,0-20.13,0A10.19,10.19,0,0,0,292.5,63.82Z"/><path d="M312.67,40.52h3.44v4.57a19.52,19.52,0,0,1-.11,2h.11c1.23-3.9,4.1-6.88,8.16-6.88a7,7,0,0,1,1.38.15v3.44a8.94,8.94,0,0,0-1.28-.1c-3.64,0-6.36,2.88-7.49,6.67a16.86,16.86,0,0,0-.72,5V66.34h-3.49Z"/><path class="cls-7" d="M331.35,29.89H338V45.34h16.68V29.89h6.63V66.34h-6.63V51H338v15.3h-6.62Z"/><path class="cls-7" d="M386.79,29.28a18.43,18.43,0,0,1,18.89,18.63,19.08,19.08,0,0,1-4,11.55l4.11,3.69L402,67.36l-4.05-4A18.19,18.19,0,0,1,386.79,67a18.66,18.66,0,0,1-18.79-19A18.41,18.41,0,0,1,386.79,29.28Zm0,31.61A11.86,11.86,0,0,0,393.15,59l-4-3.85L392.9,51l4,3.95a13.57,13.57,0,0,0,2-7c0-7.24-5.29-12.58-12.06-12.58s-12,5.34-12,12.58C374.83,55.35,380.11,60.89,386.79,60.89Z"/></g></g></svg>