<?xml version="1.0" encoding="utf-8"?>
<!-- Generator: Adobe Illustrator 22.1.0, SVG Export Plug-In . SVG Version: 6.00 Build 0)  -->
<svg version="1.1" id="Layer_1" xmlns="http://www.w3.org/2000/svg" xmlns:xlink="http://www.w3.org/1999/xlink" x="0px" y="0px"
	 viewBox="0 0 612 792" style="enable-background:new 0 0 612 792;" xml:space="preserve">
<style type="text/css">
	.st0{fill:#FFFFFF;}
</style>
<g>
	<circle class="st0" cx="308" cy="432.5" r="222.2"/>
	<path d="M319,647.4c-8.3-7-16.5-14-24.9-21.1c0-24.2,0-48.3,0-72.7c-32.8-4.1-59.6-18.9-81.2-44c-16.9,0-34,0-51.5,0
		c-9.4-9-18.9-18-29-27.6c21.6,0,42.3,0,63.7,0c-5.3-12.6-8.7-25.2-10.1-38.4c-28.4,0-56.3,0-84.5,0c-4.2-4.6-8.5-9.2-13.1-14.2
		c4.3-3.1,9.2-6.6,14.1-10c27.8,0,55.5,0,83.6,0c1.9-12.3,4.7-24.4,10.2-36.1c-21.3,0-42.2,0-63.1,0c-0.2-0.3-0.3-0.6-0.5-0.9
		c9.3-8.9,19.2-17.1,28.5-26c17.1,0,34.1,0,51.2,0c21.7-26.1,49.5-40.8,83.7-44.7c0-1.7,0-3.4,0-5.2c-0.3-17,1.4-33.9,2.7-50.8
		c0.9-11.4,1.5-22.9,2.3-34.4c0.8-11.6,1.8-23.2,2.6-34.8c0.8-11,1.5-21.9,2.3-32.9c0.1-0.8,0.2-1.5,0.9-2.4
		c0.2,0.8,0.6,1.6,0.7,2.5c1.2,13.3,2.2,26.5,3.4,39.8c1.2,12.9,2.5,25.8,3.7,38.7c0.8,9.1,1.5,18.2,2.3,27.3
		c0.8,9.1,1.8,18.2,2.6,27.3c0.2,2.3,0.2,4.7,0.2,7c0,5.8,0,11.7,0,18c32.6,4.3,59.9,18.6,81.5,44.4c17.3,0,34.9,0,52.6,0
		c9.8,8.8,19.4,17.4,29.7,26.7c-22.4,0-43.8,0-65.9,0c4.9,11.9,8.4,23.6,9.8,36.4c2.1,0,3.9,0,5.7,0c25.2,0,50.3,0,75.5,0
		c3,0,5.5,0.6,7.8,2.5c3,2.4,6.2,4.5,9.4,6.6c0.6,0.4,1.4,0.4,2.2,0.6c0,0.7,0,1.3,0,2c-1.4,1-3,1.9-4.2,3.1
		c-3.4,3.2-6.7,6.5-10,9.7c-28.7,0-57.2,0-85.9,0c-1.6,13.2-4.7,25.8-10.2,38.2c22,0,43.3,0,65.4,0c-9.9,9.4-19.3,18.3-28.8,27.4
		c-17.9,0-35.6,0-53.1,0c-21.7,25.2-48.5,40-81.3,44.2c0,2.1,0,3.9,0,5.7c0,27.7,0,55.3,0,83C319.8,643.9,319.3,645.6,319,647.4z
		 M296.2,314.7c-31.9,3.7-57.8,17.2-79.4,41.4c20.6,0,40,0,59.5,0c0,51.1,0,101.9,0,153c-5.1,0-9.9,0-14.7,0c-4.8,0-9.7,0-14.5,0
		c-5,0-10,0-15,0c-4.7,0-9.4,0.1-15.2,0.1c21.2,23.8,46.3,37.4,77.6,40.9C295.1,471.6,295.6,393.5,296.2,314.7z M396.9,509.2
		c-5.8,0-10.4,0-14.9,0c-4.8,0-9.7,0-14.5,0c-4.7,0-9.3,0-14,0c-4.7,0-9.5,0.2-14.3-0.2c0-51.2,0-101.8,0-152.9c19,0,37.8,0,57.7,0
		c-21.1-23.6-46.3-37.1-76.7-41c-1,8.5-0.6,231.4,0.4,235.1C350.9,546.4,376,532.9,396.9,509.2z M189.4,443.5
		c0.2,10.3,5.4,30.4,10.3,38.2c15.5,0,31.1,0,46.6,0c0-12.8,0-25.4,0-38.2C227.1,443.5,208.3,443.5,189.4,443.5z M369.2,481.7
		c15.3,0,30.3,0,45.3,0c5.5-12.2,9.1-24.6,9.9-38.1c-18.5,0-36.8,0-55.2,0C369.2,456.3,369.2,468.9,369.2,481.7z M246.1,419.2
		c0-12.2,0-24.1,0-36c-15.7,0-31.1,0-46.3,0c-5.8,11.5-10.2,28.1-9.5,36C208.7,419.2,227.2,419.2,246.1,419.2z M369.1,419.1
		c18.5,0,36.6,0,55.1,0c-1.3-12.8-4.7-24.6-10-35.9c-15.1,0-30,0-45.1,0C369.1,395.2,369.1,407,369.1,419.1z"/>
</g>
</svg>
