<svg id="Layer_1" data-name="Layer 1" xmlns="http://www.w3.org/2000/svg" viewBox="0 0 441 503"><defs><style>.cls-1{fill:#fefefe;}.cls-2{fill:#302f2e;}.cls-3{fill:#fdfdfd;}.cls-4{fill:#fcfcfc;}.cls-5{fill:#f8f8f8;}.cls-6{fill:#fafafa;}</style></defs><title>ee-logo</title><path class="cls-1" d="M319,648H87V145H528V429a7,7,0,0,1-2.16-.6c-3.16-2.14-6.37-4.24-9.35-6.62a11.68,11.68,0,0,0-7.85-2.46c-25.16.09-50.32.05-75.48.05h-5.69c-1.37-12.79-4.94-24.55-9.81-36.44h65.92l-29.7-26.73h-52.6c-21.51-25.83-48.87-40.07-81.45-44.42,0-6.35,0-12.18,0-18,0-2.33,0-4.67-.23-7-.84-9.1-1.8-18.18-2.62-27.29s-1.45-18.23-2.28-27.34c-1.18-12.91-2.52-25.82-3.68-38.73-1.2-13.26-2.26-26.53-3.41-39.79a14.16,14.16,0,0,0-.71-2.5,3.77,3.77,0,0,0-.89,2.42c-.75,11-1.46,21.93-2.25,32.89-.84,11.61-1.81,23.22-2.62,34.83-.81,11.46-1.38,22.93-2.26,34.37-1.32,16.92-3,33.81-2.72,50.81,0,1.77,0,3.54,0,5.21-34.18,3.9-62,18.53-83.71,44.67H161.19c-9.34,8.89-19.21,17.12-28.49,26l.48.89h63.08C190.82,395,188,407,186.1,419.32H102.46l-14.14,10,13.1,14.23H186A134,134,0,0,0,196.05,482H132.39l29,27.58h51.52c21.62,25.07,48.47,39.86,81.23,44v72.69L319,647.35Z" transform="translate(-87 -145)"/><path class="cls-2" d="M319,647.35l-24.88-21.08V553.58c-32.76-4.11-59.61-18.9-81.23-44H161.37l-29-27.58h63.66A134,134,0,0,1,186,443.59H101.42l-13.1-14.23,14.14-10H186.1C188,407,190.82,395,196.26,383.2H133.18l-.48-.89c9.28-8.86,19.15-17.09,28.49-26h51.25c21.7-26.14,49.53-40.77,83.71-44.67,0-1.67,0-3.44,0-5.21-.32-17,1.4-33.89,2.72-50.81.88-11.44,1.45-22.91,2.26-34.37.81-11.61,1.78-23.22,2.62-34.83.79-11,1.5-21.93,2.25-32.89a3.77,3.77,0,0,1,.89-2.42,14.16,14.16,0,0,1,.71,2.5c1.15,13.26,2.21,26.53,3.41,39.79,1.16,12.91,2.5,25.82,3.68,38.73.83,9.11,1.46,18.24,2.28,27.34s1.78,18.19,2.62,27.29c.21,2.32.21,4.66.23,7,0,5.83,0,11.66,0,18,32.58,4.35,59.94,18.59,81.45,44.42h52.6l29.7,26.73H417.66c4.87,11.89,8.44,23.65,9.81,36.44h5.69c25.16,0,50.32,0,75.48-.05a11.68,11.68,0,0,1,7.85,2.46c3,2.38,6.19,4.48,9.35,6.62a7,7,0,0,0,2.16.6v2a40.56,40.56,0,0,0-4.25,3.06c-3.4,3.16-6.67,6.45-10,9.67h-85.9A132,132,0,0,1,417.67,482h65.38l-28.8,27.39H401.17c-21.73,25.17-48.52,40-81.32,44.2v5.69q0,41.47,0,83A31.47,31.47,0,0,1,319,647.35ZM296.19,314.73c-31.91,3.69-57.77,17.16-79.4,41.43h59.55v153H247.13c-5,0-10,0-15,0-4.69,0-9.37.07-15.18.11,21.22,23.82,46.29,37.38,77.59,40.93C295.09,471.55,295.64,393.5,296.19,314.73ZM397,509.16H367.5c-4.66,0-9.33,0-14,0s-9.51.22-14.27-.16V356.06H397c-21.14-23.62-46.3-37.11-76.69-41-1,8.54-.62,231.44.42,235.06C351,546.35,376,532.91,397,509.16ZM189.42,443.51c.24,10.28,5.37,30.41,10.3,38.16h46.6V443.51Zm179.74,38.16h45.3c5.48-12.19,9.08-24.62,9.91-38.13H369.16ZM246.09,419.2v-36H199.76c-5.79,11.45-10.17,28.14-9.46,36Zm123-.1h55.08a109.25,109.25,0,0,0-10-35.92H369.11Z" transform="translate(-87 -145)"/><path class="cls-3" d="M319,647.35a31.47,31.47,0,0,0,.82-5.13q.07-41.49,0-83v-5.69c32.8-4.17,59.59-19,81.32-44.2h53.08L483.05,482H417.67a132,132,0,0,0,10.2-38.25h85.9c3.31-3.22,6.58-6.51,10-9.67A40.56,40.56,0,0,1,528,431V648H319Z" transform="translate(-87 -145)"/><path class="cls-4" d="M296.19,314.73c-.55,78.77-1.1,156.82-1.64,235.47-31.3-3.55-56.37-17.11-77.59-40.93,5.81,0,10.49-.09,15.18-.11,5,0,10,0,15,0h29.21v-153H216.79C238.42,331.89,264.28,318.42,296.19,314.73Z" transform="translate(-87 -145)"/><path class="cls-4" d="M397,509.16c-21,23.75-46,37.19-76.27,40.95-1-3.62-1.42-226.52-.42-235.06,30.39,3.9,55.55,17.39,76.69,41H339.23V509c4.76.38,9.53.12,14.27.16s9.34,0,14,0H397Z" transform="translate(-87 -145)"/><path class="cls-5" d="M189.42,443.51h56.9v38.16h-46.6C194.79,473.92,189.66,453.79,189.42,443.51Z" transform="translate(-87 -145)"/><path class="cls-6" d="M369.16,481.67V443.54h55.21c-.83,13.51-4.43,25.94-9.91,38.13Z" transform="translate(-87 -145)"/><path class="cls-3" d="M246.09,419.2H190.3c-.71-7.84,3.67-24.53,9.46-36h46.33Z" transform="translate(-87 -145)"/><path class="cls-3" d="M369.11,419.1V383.18h45.06a109.25,109.25,0,0,1,10,35.92Z" transform="translate(-87 -145)"/></svg>