<svg id="Layer_1" data-name="Layer 1" xmlns="http://www.w3.org/2000/svg" viewBox="0 0 885.27 94.33"><defs><style>.cls-1{fill:#3aa091;}.cls-2{fill:#231f20;}</style></defs><title>BYOL</title><path class="cls-1" d="M163.74,125.91a4.09,4.09,0,0,1-4.08,4.08H40.26a4.09,4.09,0,0,1-4.09-4.08v-6.65a4.1,4.1,0,0,1,4.09-4.1h119.4a4.09,4.09,0,0,1,4.08,4.1Z" transform="translate(-36.18 -35.66)"/><path class="cls-1" d="M163.74,103.57a4.09,4.09,0,0,1-4.08,4.1H40.26a4.1,4.1,0,0,1-4.09-4.1V39.75a4.09,4.09,0,0,1,4.09-4.08h119.4a4.08,4.08,0,0,1,4.08,4.08ZM151,50.85a3.34,3.34,0,0,0-3.35-3.34h-96a3.35,3.35,0,0,0-3.35,3.34V91.93a3.35,3.35,0,0,0,3.35,3.35h96A3.35,3.35,0,0,0,151,91.93Z" transform="translate(-36.18 -35.66)"/><path class="cls-2" d="M229.14,99.69H215.6a3.34,3.34,0,0,1-3.33-3.33V66a3.34,3.34,0,0,1,3.33-3.33h13.16c6.44,0,10.38,3.89,10.38,9.44a8.41,8.41,0,0,1-6.5,8.49c3.94.61,7.22,4.66,7.22,9.1C239.86,95.64,235.92,99.69,229.14,99.69ZM228,66.77h-11.1V78.71H228c4.16,0,6.38-2.55,6.38-5.94S232.14,66.77,228,66.77Zm.22,16H216.88V95.58H228.2c4.33,0,6.88-2.44,6.88-6.38C235.08,85.81,232.75,82.81,228.2,82.81Z" transform="translate(-36.18 -35.66)"/><path class="cls-2" d="M264.05,84.59l7.94,12a2.34,2.34,0,0,1,.33,1.17A2.27,2.27,0,0,1,270,100a2.15,2.15,0,0,1-1.83-1l-9-14h-7.38V97.75a2.3,2.3,0,0,1-4.61,0V66a3.34,3.34,0,0,1,3.33-3.33h11.55c6.77,0,11.6,4.33,11.6,11.16C273.66,80.48,269.11,84.14,264.05,84.59ZM251.79,66.77V80.93h9.71c4.38,0,7.38-2.94,7.38-7.11s-3-7.05-7.38-7.05Z" transform="translate(-36.18 -35.66)"/><path class="cls-2" d="M283.2,100a2.25,2.25,0,0,1-2.28-2.28V64.55a2.27,2.27,0,0,1,2.39-2.22,2.23,2.23,0,0,1,2.22,2.22v33.2A2.26,2.26,0,0,1,283.2,100Z" transform="translate(-36.18 -35.66)"/><path class="cls-2" d="M322.06,100a2.81,2.81,0,0,1-2.28-1.17l-21-28.7V97.75a2.3,2.3,0,0,1-4.61,0V65.11a2.86,2.86,0,0,1,2.94-2.78,3,3,0,0,1,2.44,1.22l20.65,28v-27a2.27,2.27,0,0,1,2.39-2.22,2.23,2.23,0,0,1,2.22,2.22V97.41A2.68,2.68,0,0,1,322.06,100Z" transform="translate(-36.18 -35.66)"/><path class="cls-2" d="M351,100.41c-10.55,0-19-7.72-19-19.21s8.49-19.15,19-19.15a17.48,17.48,0,0,1,12.71,5.05,2.05,2.05,0,0,1,.61,1.55,2.08,2.08,0,0,1-3.61,1.5,13.58,13.58,0,0,0-9.71-4c-8.1,0-14.27,6.22-14.27,15S342.92,96.3,351,96.3a14.61,14.61,0,0,0,9.94-4V84.76h-11a2,2,0,0,1-2-2.11,2,2,0,0,1,2-2h12.32A3.34,3.34,0,0,1,365.57,84v7.33C365.57,97,357.58,100.41,351,100.41Z" transform="translate(-36.18 -35.66)"/><path class="cls-2" d="M415.19,65.72,402.76,84V97.75a2.3,2.3,0,0,1-4.61,0V84L385.66,65.72a2.09,2.09,0,0,1-.39-1.17,2.22,2.22,0,0,1,2.22-2.22,2.42,2.42,0,0,1,1.89.94l11,16.6,11-16.6a2.24,2.24,0,0,1,1.78-.89,2.27,2.27,0,0,1,2.28,2.16A2.19,2.19,0,0,1,415.19,65.72Z" transform="translate(-36.18 -35.66)"/><path class="cls-2" d="M436.78,100.35c-11,0-18.37-8.22-18.37-19.15s7.38-19.15,18.37-19.15,18.37,8.22,18.37,19.15S447.72,100.35,436.78,100.35Zm0-34.19c-8.33,0-13.6,6.38-13.6,15s5.27,15,13.6,15,13.6-6.44,13.6-15S445.05,66.16,436.78,66.16Z" transform="translate(-36.18 -35.66)"/><path class="cls-2" d="M477.47,100.35c-10,0-15.1-5.94-15.1-15V64.55a2.27,2.27,0,0,1,2.39-2.22A2.23,2.23,0,0,1,467,64.55V85.2c0,6.77,3.66,11,10.49,11S488,92,488,85.2V64.55a2.27,2.27,0,0,1,2.39-2.22,2.23,2.23,0,0,1,2.22,2.22V85.26C492.57,94.47,487.52,100.35,477.47,100.35Z" transform="translate(-36.18 -35.66)"/><path class="cls-2" d="M518.1,84.59l7.94,12a2.34,2.34,0,0,1,.33,1.17,2.27,2.27,0,0,1-2.28,2.22,2.15,2.15,0,0,1-1.83-1l-9-14h-7.38V97.75a2.3,2.3,0,0,1-4.61,0V66a3.34,3.34,0,0,1,3.33-3.33H516.1c6.77,0,11.6,4.33,11.6,11.16C527.7,80.48,523.15,84.14,518.1,84.59ZM505.83,66.77V80.93h9.71c4.38,0,7.38-2.94,7.38-7.11s-3-7.05-7.38-7.05Z" transform="translate(-36.18 -35.66)"/><path class="cls-2" d="M566.16,100.35c-11,0-18.37-8.22-18.37-19.15s7.38-19.15,18.37-19.15,18.38,8.22,18.38,19.15S577.1,100.35,566.16,100.35Zm0-34.19c-8.33,0-13.6,6.38-13.6,15s5.27,15,13.6,15,13.6-6.44,13.6-15S574.43,66.16,566.16,66.16Z" transform="translate(-36.18 -35.66)"/><path class="cls-2" d="M633.72,65.33,624.5,97.75a3.23,3.23,0,0,1-3.11,2.28h-.06a3,3,0,0,1-2.94-2.28l-7.61-27.92-7.66,27.92a3.12,3.12,0,0,1-3.05,2.28H600a3,3,0,0,1-2.94-2.22l-9.21-32.47a2.77,2.77,0,0,1-.11-.67,2.36,2.36,0,0,1,2.39-2.33,2.5,2.5,0,0,1,2.44,1.83l7.83,29.37,8.1-29.48a2.35,2.35,0,0,1,2.33-1.72,2.38,2.38,0,0,1,2.28,1.72l8.1,29.48L629,64.16a2.45,2.45,0,0,1,2.39-1.78,2.33,2.33,0,0,1,2.44,2.28A2.82,2.82,0,0,1,633.72,65.33Z" transform="translate(-36.18 -35.66)"/><path class="cls-2" d="M667.52,100a2.81,2.81,0,0,1-2.28-1.17l-21-28.7V97.75a2.3,2.3,0,0,1-4.61,0V65.11a2.86,2.86,0,0,1,2.94-2.78A3,3,0,0,1,645,63.55l20.65,28v-27a2.27,2.27,0,0,1,2.39-2.22,2.23,2.23,0,0,1,2.22,2.22V97.41A2.68,2.68,0,0,1,667.52,100Z" transform="translate(-36.18 -35.66)"/><path class="cls-2" d="M713.42,99.69H696.6a3.34,3.34,0,0,1-3.33-3.33V64.55a2.27,2.27,0,0,1,2.39-2.22,2.23,2.23,0,0,1,2.22,2.22v31h15.54a2,2,0,0,1,2,2A2,2,0,0,1,713.42,99.69Z" transform="translate(-36.18 -35.66)"/><path class="cls-2" d="M749.72,100a2.39,2.39,0,0,1-2.22-1.5l-2.78-7.05H726.29l-2.78,7.05a2.39,2.39,0,0,1-2.22,1.5,2.48,2.48,0,0,1-2.5-2.44,2.51,2.51,0,0,1,.17-.89l12.77-31.86a4,4,0,0,1,3.78-2.5,4,4,0,0,1,3.66,2.5L752,96.69a2.51,2.51,0,0,1,.17.89A2.55,2.55,0,0,1,749.72,100ZM735.51,67.44l-7.88,19.93h15.71Z" transform="translate(-36.18 -35.66)"/><path class="cls-2" d="M773,85H762.7V97.75a2.3,2.3,0,0,1-4.61,0V66a3.34,3.34,0,0,1,3.33-3.33H773c7.44,0,11.6,5.11,11.6,11.16S780.3,85,773,85Zm-.55-18.21H762.7v14.1h9.71c4.38,0,7.38-2.89,7.38-7S776.8,66.77,772.42,66.77Z" transform="translate(-36.18 -35.66)"/><path class="cls-2" d="M814.55,66.77h-10.1v31a2.3,2.3,0,0,1-4.61,0v-31h-10a2,2,0,0,1-2-2.11,2,2,0,0,1,2-2h24.76a2,2,0,0,1,2,2.11A2,2,0,0,1,814.55,66.77Z" transform="translate(-36.18 -35.66)"/><path class="cls-2" d="M837.69,100.35c-11,0-18.37-8.22-18.37-19.15s7.38-19.15,18.37-19.15,18.38,8.22,18.38,19.15S848.63,100.35,837.69,100.35Zm0-34.19c-8.33,0-13.6,6.38-13.6,15s5.27,15,13.6,15,13.6-6.44,13.6-15S846,66.16,837.69,66.16Z" transform="translate(-36.18 -35.66)"/><path class="cls-2" d="M878.15,85H867.88V97.75a2.3,2.3,0,0,1-4.61,0V66a3.34,3.34,0,0,1,3.33-3.33h11.55c7.44,0,11.6,5.11,11.6,11.16S885.48,85,878.15,85Zm-.55-18.21h-9.71v14.1h9.71c4.38,0,7.38-2.89,7.38-7S882,66.77,877.6,66.77Z" transform="translate(-36.18 -35.66)"/><path class="cls-2" d="M909.68,85.64a11.77,11.77,0,1,1,11.77-11.77A11.77,11.77,0,0,1,909.68,85.64Zm0-21.93a10.19,10.19,0,1,0,10.16,10.16A10.14,10.14,0,0,0,909.68,63.72Zm1.83,11.55,2.83,4.22a.74.74,0,0,1,.17.44,1.07,1.07,0,0,1-1,1,1,1,0,0,1-.72-.39l-3.39-5.22H907v4.83A.88.88,0,0,1,906,81a.85.85,0,0,1-.83-.83V68.66a1.49,1.49,0,0,1,1.5-1.5h4A4.1,4.1,0,0,1,915,71.27,4,4,0,0,1,911.51,75.26Zm-.83-6.55H907v5h3.72a2.5,2.5,0,0,0,0-5Z" transform="translate(-36.18 -35.66)"/></svg>